{
 "cells": [
  {
   "cell_type": "code",
   "execution_count": 1,
   "id": "864b5123",
   "metadata": {},
   "outputs": [],
   "source": [
    "## where to write temporary files \n",
    "TMP_PREFIX = \"tmp/\"\n",
    "\n",
    "## csv file to find the annotations\n",
    "ANNOTATION_FILE = \"toy_data/toy_example_annotation.csv\""
   ]
  },
  {
   "cell_type": "markdown",
   "id": "c0248b7f",
   "metadata": {},
   "source": [
    "\n",
    "\n",
    "mains steps: \n",
    "1. check overlap between parts\n",
    "2. check overlap between cutout and parts extremities: push part extremities \n",
    "3. from cut out to sub parts\n",
    "4. generate split and merge commands\n",
    "5. apply commands\n",
    "\n",
    "\n",
    "\n",
    "\n"
   ]
  },
  {
   "cell_type": "code",
   "execution_count": 2,
   "id": "1c646921",
   "metadata": {},
   "outputs": [],
   "source": [
    "from collections import defaultdict\n",
    "import os \n",
    "import pandas as pd\n",
    "import numpy as np\n",
    "\n",
    "from utils import *"
   ]
  },
  {
   "cell_type": "code",
   "execution_count": 3,
   "id": "af391950",
   "metadata": {},
   "outputs": [
    {
     "data": {
      "text/html": [
       "<div>\n",
       "<style scoped>\n",
       "    .dataframe tbody tr th:only-of-type {\n",
       "        vertical-align: middle;\n",
       "    }\n",
       "\n",
       "    .dataframe tbody tr th {\n",
       "        vertical-align: top;\n",
       "    }\n",
       "\n",
       "    .dataframe thead th {\n",
       "        text-align: right;\n",
       "    }\n",
       "</style>\n",
       "<table border=\"1\" class=\"dataframe\">\n",
       "  <thead>\n",
       "    <tr style=\"text-align: right;\">\n",
       "      <th></th>\n",
       "      <th>source</th>\n",
       "      <th>start</th>\n",
       "      <th>stop</th>\n",
       "      <th>destination</th>\n",
       "      <th>start_second</th>\n",
       "      <th>stop_second</th>\n",
       "    </tr>\n",
       "  </thead>\n",
       "  <tbody>\n",
       "    <tr>\n",
       "      <th>0</th>\n",
       "      <td>toy_data/part7_clip1.mp4</td>\n",
       "      <td>00:00:00</td>\n",
       "      <td>00:00:30</td>\n",
       "      <td>part1</td>\n",
       "      <td>0</td>\n",
       "      <td>30</td>\n",
       "    </tr>\n",
       "    <tr>\n",
       "      <th>1</th>\n",
       "      <td>toy_data/part7_clip1.mp4</td>\n",
       "      <td>00:00:10</td>\n",
       "      <td>00:00:13</td>\n",
       "      <td>OUT</td>\n",
       "      <td>10</td>\n",
       "      <td>13</td>\n",
       "    </tr>\n",
       "    <tr>\n",
       "      <th>2</th>\n",
       "      <td>toy_data/part7_clip1.mp4</td>\n",
       "      <td>00:00:32</td>\n",
       "      <td>00:01:40</td>\n",
       "      <td>part2</td>\n",
       "      <td>32</td>\n",
       "      <td>100</td>\n",
       "    </tr>\n",
       "  </tbody>\n",
       "</table>\n",
       "</div>"
      ],
      "text/plain": [
       "                     source     start      stop destination  start_second  \\\n",
       "0  toy_data/part7_clip1.mp4  00:00:00  00:00:30       part1             0   \n",
       "1  toy_data/part7_clip1.mp4  00:00:10  00:00:13         OUT            10   \n",
       "2  toy_data/part7_clip1.mp4  00:00:32  00:01:40       part2            32   \n",
       "\n",
       "   stop_second  \n",
       "0           30  \n",
       "1           13  \n",
       "2          100  "
      ]
     },
     "execution_count": 3,
     "metadata": {},
     "output_type": "execute_result"
    }
   ],
   "source": [
    "df_annot = pd.read_csv(ANNOTATION_FILE)\n",
    "df_annot['start_second'] = df_annot.start.apply(time_to_seconds) ## convert time to seconds\n",
    "df_annot['stop_second'] = df_annot.stop.apply(time_to_seconds)   ## convert time to seconds\n",
    "\n",
    "\n",
    "## check that all elements start before they stop:\n",
    "PB = df_annot.loc[ df_annot.stop_second < df_annot.start_second , :]\n",
    "if PB.shape[0]>0:\n",
    "    print(\"PROBLEM: some elements stop before they start! please fix this\")\n",
    "    print( PB )\n",
    "    \n",
    "df_annot"
   ]
  },
  {
   "cell_type": "code",
   "execution_count": 4,
   "id": "715146d0",
   "metadata": {},
   "outputs": [],
   "source": [
    "## separate parts and cut out\n",
    "df_annot_parts = df_annot.loc[ df_annot.destination != \"OUT\" , :].copy().reset_index(drop=True)\n",
    "df_annot_OUT = df_annot.loc[ df_annot.destination == \"OUT\" , :].copy().reset_index(drop=True)\n"
   ]
  },
  {
   "cell_type": "code",
   "execution_count": 5,
   "id": "b2e01479",
   "metadata": {},
   "outputs": [],
   "source": [
    "## check if some parts overlap :\n",
    "check_overlap( df_annot_parts )\n"
   ]
  },
  {
   "cell_type": "code",
   "execution_count": 6,
   "id": "414687ab",
   "metadata": {},
   "outputs": [],
   "source": [
    "## merge overlapping cutouts \n",
    "df_annot_OUT = merge_overlapping_elements(df_annot_OUT)\n",
    "\n",
    "##sort cutout by video and start!!\n",
    "df_annot_OUT.sort_values( by = ['source' , 'start_second']  , inplace=True)\n"
   ]
  },
  {
   "cell_type": "code",
   "execution_count": 7,
   "id": "79bca76c",
   "metadata": {},
   "outputs": [
    {
     "data": {
      "text/html": [
       "<div>\n",
       "<style scoped>\n",
       "    .dataframe tbody tr th:only-of-type {\n",
       "        vertical-align: middle;\n",
       "    }\n",
       "\n",
       "    .dataframe tbody tr th {\n",
       "        vertical-align: top;\n",
       "    }\n",
       "\n",
       "    .dataframe thead th {\n",
       "        text-align: right;\n",
       "    }\n",
       "</style>\n",
       "<table border=\"1\" class=\"dataframe\">\n",
       "  <thead>\n",
       "    <tr style=\"text-align: right;\">\n",
       "      <th></th>\n",
       "      <th>source</th>\n",
       "      <th>start</th>\n",
       "      <th>stop</th>\n",
       "      <th>destination</th>\n",
       "      <th>start_second</th>\n",
       "      <th>stop_second</th>\n",
       "    </tr>\n",
       "  </thead>\n",
       "  <tbody>\n",
       "    <tr>\n",
       "      <th>0</th>\n",
       "      <td>toy_data/part7_clip1.mp4</td>\n",
       "      <td>NaN</td>\n",
       "      <td>NaN</td>\n",
       "      <td>part1</td>\n",
       "      <td>0</td>\n",
       "      <td>10</td>\n",
       "    </tr>\n",
       "    <tr>\n",
       "      <th>1</th>\n",
       "      <td>toy_data/part7_clip1.mp4</td>\n",
       "      <td>NaN</td>\n",
       "      <td>NaN</td>\n",
       "      <td>part1</td>\n",
       "      <td>13</td>\n",
       "      <td>30</td>\n",
       "    </tr>\n",
       "    <tr>\n",
       "      <th>2</th>\n",
       "      <td>toy_data/part7_clip1.mp4</td>\n",
       "      <td>NaN</td>\n",
       "      <td>NaN</td>\n",
       "      <td>part2</td>\n",
       "      <td>32</td>\n",
       "      <td>100</td>\n",
       "    </tr>\n",
       "  </tbody>\n",
       "</table>\n",
       "</div>"
      ],
      "text/plain": [
       "                     source start stop destination start_second stop_second\n",
       "0  toy_data/part7_clip1.mp4   NaN  NaN       part1            0          10\n",
       "1  toy_data/part7_clip1.mp4   NaN  NaN       part1           13          30\n",
       "2  toy_data/part7_clip1.mp4   NaN  NaN       part2           32         100"
      ]
     },
     "execution_count": 7,
     "metadata": {},
     "output_type": "execute_result"
    }
   ],
   "source": [
    "# applying cutouts :\n",
    "#  * overlaps is across start or stop of part -> move part start or stop\n",
    "#  * otherwise part is split in 2\n",
    "df_subparts = associate_parts_and_cutout(df_annot_parts,df_annot_OUT)\n",
    "df_subparts"
   ]
  },
  {
   "cell_type": "code",
   "execution_count": 12,
   "id": "775dc379",
   "metadata": {},
   "outputs": [
    {
     "name": "stdout",
     "output_type": "stream",
     "text": [
      "#part part1\n",
      "ffmpeg -ss 00:00:00 -to 00:00:10 -i toy_data/part7_clip1.mp4 tmp/destination0_clip0.mp4\n",
      "ffmpeg -ss 00:00:13 -to 00:00:30 -i toy_data/part7_clip1.mp4 tmp/destination0_clip1.mp4\n",
      "ffmpeg -f concat -safe 0 -i destination0.clipFiles.txt -c copy part1.mp4\n",
      "rm file 'tmp/destination0_clip0.mp4'\n",
      "rm file 'tmp/destination0_clip1.mp4'\n",
      "#part part2\n",
      "ffmpeg -ss 00:00:32 -to 00:01:40 -i toy_data/part7_clip1.mp4 tmp/destination1_clip0.mp4\n",
      "ffmpeg -f concat -safe 0 -i destination1.clipFiles.txt -c copy part2.mp4\n",
      "rm file 'tmp/destination1_clip0.mp4'\n"
     ]
    }
   ],
   "source": [
    "cmds = create_commands( df_subparts , prefix = TMP_PREFIX )\n",
    "for part , commands in cmds.items():\n",
    "    print(f\"#part {part}\")\n",
    "    for c in commands:\n",
    "        print( c )\n",
    "    "
   ]
  },
  {
   "cell_type": "code",
   "execution_count": 9,
   "id": "70388a6d",
   "metadata": {
    "scrolled": false
   },
   "outputs": [
    {
     "name": "stdout",
     "output_type": "stream",
     "text": [
      "creating part1\n"
     ]
    },
    {
     "name": "stderr",
     "output_type": "stream",
     "text": [
      "ffmpeg version 4.2.7-0ubuntu0.1 Copyright (c) 2000-2022 the FFmpeg developers\n",
      "  built with gcc 9 (Ubuntu 9.4.0-1ubuntu1~20.04.1)\n",
      "  configuration: --prefix=/usr --extra-version=0ubuntu0.1 --toolchain=hardened --libdir=/usr/lib/x86_64-linux-gnu --incdir=/usr/include/x86_64-linux-gnu --arch=amd64 --enable-gpl --disable-stripping --enable-avresample --disable-filter=resample --enable-avisynth --enable-gnutls --enable-ladspa --enable-libaom --enable-libass --enable-libbluray --enable-libbs2b --enable-libcaca --enable-libcdio --enable-libcodec2 --enable-libflite --enable-libfontconfig --enable-libfreetype --enable-libfribidi --enable-libgme --enable-libgsm --enable-libjack --enable-libmp3lame --enable-libmysofa --enable-libopenjpeg --enable-libopenmpt --enable-libopus --enable-libpulse --enable-librsvg --enable-librubberband --enable-libshine --enable-libsnappy --enable-libsoxr --enable-libspeex --enable-libssh --enable-libtheora --enable-libtwolame --enable-libvidstab --enable-libvorbis --enable-libvpx --enable-libwavpack --enable-libwebp --enable-libx265 --enable-libxml2 --enable-libxvid --enable-libzmq --enable-libzvbi --enable-lv2 --enable-omx --enable-openal --enable-opencl --enable-opengl --enable-sdl2 --enable-libdc1394 --enable-libdrm --enable-libiec61883 --enable-nvenc --enable-chromaprint --enable-frei0r --enable-libx264 --enable-shared\n",
      "  libavutil      56. 31.100 / 56. 31.100\n",
      "  libavcodec     58. 54.100 / 58. 54.100\n",
      "  libavformat    58. 29.100 / 58. 29.100\n",
      "  libavdevice    58.  8.100 / 58.  8.100\n",
      "  libavfilter     7. 57.100 /  7. 57.100\n",
      "  libavresample   4.  0.  0 /  4.  0.  0\n",
      "  libswscale      5.  5.100 /  5.  5.100\n",
      "  libswresample   3.  5.100 /  3.  5.100\n",
      "  libpostproc    55.  5.100 / 55.  5.100\n",
      "Input #0, mov,mp4,m4a,3gp,3g2,mj2, from 'toy_data/part7_clip1.mp4':\n",
      "  Metadata:\n",
      "    major_brand     : isom\n",
      "    minor_version   : 512\n",
      "    compatible_brands: isomiso2avc1mp41\n",
      "    encoder         : Lavf58.29.100\n",
      "  Duration: 00:01:42.03, start: 0.000000, bitrate: 579 kb/s\n",
      "    Stream #0:0(und): Video: h264 (High) (avc1 / 0x31637661), yuv420p, 1912x1384, 503 kb/s, 25 fps, 25 tbr, 12800 tbn, 50 tbc (default)\n",
      "    Metadata:\n",
      "      handler_name    : H.264/AVC video\n",
      "    Stream #0:1(und): Audio: aac (LC) (mp4a / 0x6134706D), 32000 Hz, mono, fltp, 70 kb/s (default)\n",
      "    Metadata:\n",
      "      handler_name    : AAC audio\n",
      "File 'tmp/destination0_clip0.mp4' already exists. Overwrite ? [y/N] Not overwriting - exiting\n",
      "ffmpeg version 4.2.7-0ubuntu0.1 Copyright (c) 2000-2022 the FFmpeg developers\n",
      "  built with gcc 9 (Ubuntu 9.4.0-1ubuntu1~20.04.1)\n",
      "  configuration: --prefix=/usr --extra-version=0ubuntu0.1 --toolchain=hardened --libdir=/usr/lib/x86_64-linux-gnu --incdir=/usr/include/x86_64-linux-gnu --arch=amd64 --enable-gpl --disable-stripping --enable-avresample --disable-filter=resample --enable-avisynth --enable-gnutls --enable-ladspa --enable-libaom --enable-libass --enable-libbluray --enable-libbs2b --enable-libcaca --enable-libcdio --enable-libcodec2 --enable-libflite --enable-libfontconfig --enable-libfreetype --enable-libfribidi --enable-libgme --enable-libgsm --enable-libjack --enable-libmp3lame --enable-libmysofa --enable-libopenjpeg --enable-libopenmpt --enable-libopus --enable-libpulse --enable-librsvg --enable-librubberband --enable-libshine --enable-libsnappy --enable-libsoxr --enable-libspeex --enable-libssh --enable-libtheora --enable-libtwolame --enable-libvidstab --enable-libvorbis --enable-libvpx --enable-libwavpack --enable-libwebp --enable-libx265 --enable-libxml2 --enable-libxvid --enable-libzmq --enable-libzvbi --enable-lv2 --enable-omx --enable-openal --enable-opencl --enable-opengl --enable-sdl2 --enable-libdc1394 --enable-libdrm --enable-libiec61883 --enable-nvenc --enable-chromaprint --enable-frei0r --enable-libx264 --enable-shared\n",
      "  libavutil      56. 31.100 / 56. 31.100\n",
      "  libavcodec     58. 54.100 / 58. 54.100\n",
      "  libavformat    58. 29.100 / 58. 29.100\n",
      "  libavdevice    58.  8.100 / 58.  8.100\n",
      "  libavfilter     7. 57.100 /  7. 57.100\n",
      "  libavresample   4.  0.  0 /  4.  0.  0\n",
      "  libswscale      5.  5.100 /  5.  5.100\n",
      "  libswresample   3.  5.100 /  3.  5.100\n",
      "  libpostproc    55.  5.100 / 55.  5.100\n",
      "Input #0, mov,mp4,m4a,3gp,3g2,mj2, from 'toy_data/part7_clip1.mp4':\n",
      "  Metadata:\n",
      "    major_brand     : isom\n",
      "    minor_version   : 512\n",
      "    compatible_brands: isomiso2avc1mp41\n",
      "    encoder         : Lavf58.29.100\n",
      "  Duration: 00:01:42.03, start: 0.000000, bitrate: 579 kb/s\n",
      "    Stream #0:0(und): Video: h264 (High) (avc1 / 0x31637661), yuv420p, 1912x1384, 503 kb/s, 25 fps, 25 tbr, 12800 tbn, 50 tbc (default)\n",
      "    Metadata:\n",
      "      handler_name    : H.264/AVC video\n",
      "    Stream #0:1(und): Audio: aac (LC) (mp4a / 0x6134706D), 32000 Hz, mono, fltp, 70 kb/s (default)\n",
      "    Metadata:\n",
      "      handler_name    : AAC audio\n",
      "File 'tmp/destination0_clip1.mp4' already exists. Overwrite ? [y/N] Not overwriting - exiting\n",
      "ffmpeg version 4.2.7-0ubuntu0.1 Copyright (c) 2000-2022 the FFmpeg developers\n",
      "  built with gcc 9 (Ubuntu 9.4.0-1ubuntu1~20.04.1)\n",
      "  configuration: --prefix=/usr --extra-version=0ubuntu0.1 --toolchain=hardened --libdir=/usr/lib/x86_64-linux-gnu --incdir=/usr/include/x86_64-linux-gnu --arch=amd64 --enable-gpl --disable-stripping --enable-avresample --disable-filter=resample --enable-avisynth --enable-gnutls --enable-ladspa --enable-libaom --enable-libass --enable-libbluray --enable-libbs2b --enable-libcaca --enable-libcdio --enable-libcodec2 --enable-libflite --enable-libfontconfig --enable-libfreetype --enable-libfribidi --enable-libgme --enable-libgsm --enable-libjack --enable-libmp3lame --enable-libmysofa --enable-libopenjpeg --enable-libopenmpt --enable-libopus --enable-libpulse --enable-librsvg --enable-librubberband --enable-libshine --enable-libsnappy --enable-libsoxr --enable-libspeex --enable-libssh --enable-libtheora --enable-libtwolame --enable-libvidstab --enable-libvorbis --enable-libvpx --enable-libwavpack --enable-libwebp --enable-libx265 --enable-libxml2 --enable-libxvid --enable-libzmq --enable-libzvbi --enable-lv2 --enable-omx --enable-openal --enable-opencl --enable-opengl --enable-sdl2 --enable-libdc1394 --enable-libdrm --enable-libiec61883 --enable-nvenc --enable-chromaprint --enable-frei0r --enable-libx264 --enable-shared\n",
      "  libavutil      56. 31.100 / 56. 31.100\n",
      "  libavcodec     58. 54.100 / 58. 54.100\n",
      "  libavformat    58. 29.100 / 58. 29.100\n",
      "  libavdevice    58.  8.100 / 58.  8.100\n",
      "  libavfilter     7. 57.100 /  7. 57.100\n",
      "  libavresample   4.  0.  0 /  4.  0.  0\n",
      "  libswscale      5.  5.100 /  5.  5.100\n",
      "  libswresample   3.  5.100 /  3.  5.100\n",
      "  libpostproc    55.  5.100 / 55.  5.100\n",
      "[mov,mp4,m4a,3gp,3g2,mj2 @ 0x55731209b4c0] Auto-inserting h264_mp4toannexb bitstream filter\n",
      "Input #0, concat, from 'destination0.clipFiles.txt':\n",
      "  Duration: N/A, start: -0.032000, bitrate: 342 kb/s\n",
      "    Stream #0:0(und): Video: h264 (High) (avc1 / 0x31637661), yuv420p, 1912x1384, 270 kb/s, 25 fps, 25 tbr, 12800 tbn, 50 tbc\n",
      "    Metadata:\n",
      "      handler_name    : H.264/AVC video\n",
      "    Stream #0:1(und): Audio: aac (LC) (mp4a / 0x6134706D), 32000 Hz, mono, fltp, 72 kb/s\n",
      "    Metadata:\n",
      "      handler_name    : AAC audio\n",
      "Output #0, mp4, to 'part1.mp4':\n",
      "  Metadata:\n",
      "    encoder         : Lavf58.29.100\n",
      "    Stream #0:0(und): Video: h264 (High) (avc1 / 0x31637661), yuv420p, 1912x1384, q=2-31, 270 kb/s, 25 fps, 25 tbr, 12800 tbn, 12800 tbc\n",
      "    Metadata:\n",
      "      handler_name    : H.264/AVC video\n",
      "    Stream #0:1(und): Audio: aac (LC) (mp4a / 0x6134706D), 32000 Hz, mono, fltp, 72 kb/s\n",
      "    Metadata:\n",
      "      handler_name    : AAC audio\n",
      "Stream mapping:\n",
      "  Stream #0:0 -> #0:0 (copy)\n",
      "  Stream #0:1 -> #0:1 (copy)\n",
      "Press [q] to stop, [?] for help\n",
      "[mov,mp4,m4a,3gp,3g2,mj2 @ 0x55731209eb40] Auto-inserting h264_mp4toannexb bitstream filter\n",
      "frame=  675 fps=0.0 q=-1.0 Lsize=    2062kB time=00:00:27.05 bitrate= 624.3kbits/s speed= 938x    \n",
      "video:1801kB audio:239kB subtitle:0kB other streams:0kB global headers:0kB muxing overhead: 1.068145%\n",
      "rm: cannot remove 'file': No such file or directory\n",
      "rm: cannot remove 'file': No such file or directory\n",
      "ffmpeg version 4.2.7-0ubuntu0.1 Copyright (c) 2000-2022 the FFmpeg developers\n",
      "  built with gcc 9 (Ubuntu 9.4.0-1ubuntu1~20.04.1)\n",
      "  configuration: --prefix=/usr --extra-version=0ubuntu0.1 --toolchain=hardened --libdir=/usr/lib/x86_64-linux-gnu --incdir=/usr/include/x86_64-linux-gnu --arch=amd64 --enable-gpl --disable-stripping --enable-avresample --disable-filter=resample --enable-avisynth --enable-gnutls --enable-ladspa --enable-libaom --enable-libass --enable-libbluray --enable-libbs2b --enable-libcaca --enable-libcdio --enable-libcodec2 --enable-libflite --enable-libfontconfig --enable-libfreetype --enable-libfribidi --enable-libgme --enable-libgsm --enable-libjack --enable-libmp3lame --enable-libmysofa --enable-libopenjpeg --enable-libopenmpt --enable-libopus --enable-libpulse --enable-librsvg --enable-librubberband --enable-libshine --enable-libsnappy --enable-libsoxr --enable-libspeex --enable-libssh --enable-libtheora --enable-libtwolame --enable-libvidstab --enable-libvorbis --enable-libvpx --enable-libwavpack --enable-libwebp --enable-libx265 --enable-libxml2 --enable-libxvid --enable-libzmq --enable-libzvbi --enable-lv2 --enable-omx --enable-openal --enable-opencl --enable-opengl --enable-sdl2 --enable-libdc1394 --enable-libdrm --enable-libiec61883 --enable-nvenc --enable-chromaprint --enable-frei0r --enable-libx264 --enable-shared\n",
      "  libavutil      56. 31.100 / 56. 31.100\n",
      "  libavcodec     58. 54.100 / 58. 54.100\n",
      "  libavformat    58. 29.100 / 58. 29.100\n",
      "  libavdevice    58.  8.100 / 58.  8.100\n",
      "  libavfilter     7. 57.100 /  7. 57.100\n",
      "  libavresample   4.  0.  0 /  4.  0.  0\n",
      "  libswscale      5.  5.100 /  5.  5.100\n",
      "  libswresample   3.  5.100 /  3.  5.100\n",
      "  libpostproc    55.  5.100 / 55.  5.100\n",
      "Input #0, mov,mp4,m4a,3gp,3g2,mj2, from 'toy_data/part7_clip1.mp4':\n",
      "  Metadata:\n",
      "    major_brand     : isom\n",
      "    minor_version   : 512\n",
      "    compatible_brands: isomiso2avc1mp41\n",
      "    encoder         : Lavf58.29.100\n",
      "  Duration: 00:01:42.03, start: 0.000000, bitrate: 579 kb/s\n",
      "    Stream #0:0(und): Video: h264 (High) (avc1 / 0x31637661), yuv420p, 1912x1384, 503 kb/s, 25 fps, 25 tbr, 12800 tbn, 50 tbc (default)\n",
      "    Metadata:\n",
      "      handler_name    : H.264/AVC video\n",
      "    Stream #0:1(und): Audio: aac (LC) (mp4a / 0x6134706D), 32000 Hz, mono, fltp, 70 kb/s (default)\n",
      "    Metadata:\n",
      "      handler_name    : AAC audio\n",
      "Stream mapping:\n",
      "  Stream #0:0 -> #0:0 (h264 (native) -> h264 (libx264))\n",
      "  Stream #0:1 -> #0:1 (aac (native) -> aac (native))\n",
      "Press [q] to stop, [?] for help\n",
      "[libx264 @ 0x555f0571d6c0] using cpu capabilities: MMX2 SSE2Fast SSSE3 SSE4.2 AVX FMA3 BMI2 AVX2\n",
      "[libx264 @ 0x555f0571d6c0] profile High, level 5.0\n",
      "[libx264 @ 0x555f0571d6c0] 264 - core 155 r2917 0a84d98 - H.264/MPEG-4 AVC codec - Copyleft 2003-2018 - http://www.videolan.org/x264.html - options: cabac=1 ref=3 deblock=1:0:0 analyse=0x3:0x113 me=hex subme=7 psy=1 psy_rd=1.00:0.00 mixed_ref=1 me_range=16 chroma_me=1 trellis=1 8x8dct=1 cqm=0 deadzone=21,11 fast_pskip=1 chroma_qp_offset=-2 threads=12 lookahead_threads=2 sliced_threads=0 nr=0 decimate=1 interlaced=0 bluray_compat=0 constrained_intra=0 bframes=3 b_pyramid=2 b_adapt=1 b_bias=0 direct=1 weightb=1 open_gop=0 weightp=2 keyint=250 keyint_min=25 scenecut=40 intra_refresh=0 rc_lookahead=40 rc=crf mbtree=1 crf=23.0 qcomp=0.60 qpmin=0 qpmax=69 qpstep=4 ip_ratio=1.40 aq=1:1.00\n",
      "Output #0, mp4, to 'tmp/destination1_clip0.mp4':\n",
      "  Metadata:\n",
      "    major_brand     : isom\n",
      "    minor_version   : 512\n",
      "    compatible_brands: isomiso2avc1mp41\n",
      "    encoder         : Lavf58.29.100\n",
      "    Stream #0:0(und): Video: h264 (libx264) (avc1 / 0x31637661), yuv420p, 1912x1384, q=-1--1, 25 fps, 12800 tbn, 25 tbc (default)\n",
      "    Metadata:\n",
      "      handler_name    : H.264/AVC video\n",
      "      encoder         : Lavc58.54.100 libx264\n",
      "    Side data:\n",
      "      cpb: bitrate max/min/avg: 0/0/0 buffer size: 0 vbv_delay: -1\n",
      "    Stream #0:1(und): Audio: aac (LC) (mp4a / 0x6134706D), 32000 Hz, mono, fltp, 69 kb/s (default)\n",
      "    Metadata:\n",
      "      handler_name    : AAC audio\n",
      "      encoder         : Lavc58.54.100 aac\n"
     ]
    },
    {
     "name": "stdout",
     "output_type": "stream",
     "text": [
      "creating part2\n"
     ]
    },
    {
     "name": "stderr",
     "output_type": "stream",
     "text": [
      "frame= 1700 fps=118 q=-1.0 Lsize=    4595kB time=00:01:08.00 bitrate= 553.5kbits/s speed=4.72x    \n",
      "video:3962kB audio:580kB subtitle:0kB other streams:0kB global headers:0kB muxing overhead: 1.162091%\n",
      "[libx264 @ 0x555f0571d6c0] frame I:8     Avg QP:13.03  size:169838\n",
      "[libx264 @ 0x555f0571d6c0] frame P:433   Avg QP:20.97  size:  5258\n",
      "[libx264 @ 0x555f0571d6c0] frame B:1259  Avg QP:30.41  size:   335\n",
      "[libx264 @ 0x555f0571d6c0] consecutive B-frames:  0.9%  0.9%  0.5% 97.6%\n",
      "[libx264 @ 0x555f0571d6c0] mb I  I16..4: 57.7% 19.0% 23.3%\n",
      "[libx264 @ 0x555f0571d6c0] mb P  I16..4:  0.9%  1.0%  0.4%  P16..4:  1.6%  0.2%  0.2%  0.0%  0.0%    skip:95.7%\n",
      "[libx264 @ 0x555f0571d6c0] mb B  I16..4:  0.0%  0.0%  0.0%  B16..8:  1.1%  0.0%  0.0%  direct: 0.2%  skip:98.5%  L0:44.2% L1:53.4% BI: 2.4%\n",
      "[libx264 @ 0x555f0571d6c0] 8x8 transform intra:32.9% inter:26.1%\n",
      "[libx264 @ 0x555f0571d6c0] coded y,uvDC,uvAC intra: 15.4% 15.7% 10.0% inter: 0.2% 0.4% 0.1%\n",
      "[libx264 @ 0x555f0571d6c0] i16 v,h,dc,p: 74% 26%  0%  0%\n",
      "[libx264 @ 0x555f0571d6c0] i8 v,h,dc,ddl,ddr,vr,hd,vl,hu: 47%  7% 46%  0%  0%  0%  0%  0%  0%\n",
      "[libx264 @ 0x555f0571d6c0] i4 v,h,dc,ddl,ddr,vr,hd,vl,hu: 40% 26% 13%  3%  3%  4%  4%  4%  4%\n",
      "[libx264 @ 0x555f0571d6c0] i8c dc,h,v,p: 75% 17%  7%  1%\n",
      "[libx264 @ 0x555f0571d6c0] Weighted P-Frames: Y:0.0% UV:0.0%\n",
      "[libx264 @ 0x555f0571d6c0] ref P L0: 79.4%  7.0% 10.0%  3.5%\n",
      "[libx264 @ 0x555f0571d6c0] ref B L0: 79.9% 18.0%  2.1%\n",
      "[libx264 @ 0x555f0571d6c0] ref B L1: 95.0%  5.0%\n",
      "[libx264 @ 0x555f0571d6c0] kb/s:477.27\n",
      "[aac @ 0x555f056f8f00] Qavg: 125.136\n",
      "ffmpeg version 4.2.7-0ubuntu0.1 Copyright (c) 2000-2022 the FFmpeg developers\n",
      "  built with gcc 9 (Ubuntu 9.4.0-1ubuntu1~20.04.1)\n",
      "  configuration: --prefix=/usr --extra-version=0ubuntu0.1 --toolchain=hardened --libdir=/usr/lib/x86_64-linux-gnu --incdir=/usr/include/x86_64-linux-gnu --arch=amd64 --enable-gpl --disable-stripping --enable-avresample --disable-filter=resample --enable-avisynth --enable-gnutls --enable-ladspa --enable-libaom --enable-libass --enable-libbluray --enable-libbs2b --enable-libcaca --enable-libcdio --enable-libcodec2 --enable-libflite --enable-libfontconfig --enable-libfreetype --enable-libfribidi --enable-libgme --enable-libgsm --enable-libjack --enable-libmp3lame --enable-libmysofa --enable-libopenjpeg --enable-libopenmpt --enable-libopus --enable-libpulse --enable-librsvg --enable-librubberband --enable-libshine --enable-libsnappy --enable-libsoxr --enable-libspeex --enable-libssh --enable-libtheora --enable-libtwolame --enable-libvidstab --enable-libvorbis --enable-libvpx --enable-libwavpack --enable-libwebp --enable-libx265 --enable-libxml2 --enable-libxvid --enable-libzmq --enable-libzvbi --enable-lv2 --enable-omx --enable-openal --enable-opencl --enable-opengl --enable-sdl2 --enable-libdc1394 --enable-libdrm --enable-libiec61883 --enable-nvenc --enable-chromaprint --enable-frei0r --enable-libx264 --enable-shared\n",
      "  libavutil      56. 31.100 / 56. 31.100\n",
      "  libavcodec     58. 54.100 / 58. 54.100\n",
      "  libavformat    58. 29.100 / 58. 29.100\n",
      "  libavdevice    58.  8.100 / 58.  8.100\n",
      "  libavfilter     7. 57.100 /  7. 57.100\n",
      "  libavresample   4.  0.  0 /  4.  0.  0\n",
      "  libswscale      5.  5.100 /  5.  5.100\n",
      "  libswresample   3.  5.100 /  3.  5.100\n",
      "  libpostproc    55.  5.100 / 55.  5.100\n",
      "[mov,mp4,m4a,3gp,3g2,mj2 @ 0x55cbf2151200] Auto-inserting h264_mp4toannexb bitstream filter\n",
      "Input #0, concat, from 'destination1.clipFiles.txt':\n",
      "  Duration: N/A, start: -0.032000, bitrate: 547 kb/s\n",
      "    Stream #0:0(und): Video: h264 (High) (avc1 / 0x31637661), yuv420p, 1912x1384, 477 kb/s, 25 fps, 25 tbr, 12800 tbn, 50 tbc\n",
      "    Metadata:\n",
      "      handler_name    : H.264/AVC video\n",
      "    Stream #0:1(und): Audio: aac (LC) (mp4a / 0x6134706D), 32000 Hz, mono, fltp, 69 kb/s\n",
      "    Metadata:\n",
      "      handler_name    : AAC audio\n",
      "Output #0, mp4, to 'part2.mp4':\n",
      "  Metadata:\n",
      "    encoder         : Lavf58.29.100\n",
      "    Stream #0:0(und): Video: h264 (High) (avc1 / 0x31637661), yuv420p, 1912x1384, q=2-31, 477 kb/s, 25 fps, 25 tbr, 12800 tbn, 12800 tbc\n",
      "    Metadata:\n",
      "      handler_name    : H.264/AVC video\n",
      "    Stream #0:1(und): Audio: aac (LC) (mp4a / 0x6134706D), 32000 Hz, mono, fltp, 69 kb/s\n",
      "    Metadata:\n",
      "      handler_name    : AAC audio\n",
      "Stream mapping:\n",
      "  Stream #0:0 -> #0:0 (copy)\n",
      "  Stream #0:1 -> #0:1 (copy)\n",
      "Press [q] to stop, [?] for help\n",
      "frame= 1700 fps=0.0 q=-1.0 Lsize=    4595kB time=00:01:08.00 bitrate= 553.6kbits/s speed=2.79e+03x    \n",
      "video:3963kB audio:580kB subtitle:0kB other streams:0kB global headers:0kB muxing overhead: 1.162247%\n",
      "rm: cannot remove 'file': No such file or directory\n"
     ]
    }
   ],
   "source": [
    "# apply commands - this may take a long while \n",
    "for part , commands in cmds.items():\n",
    "    print('creating',part)\n",
    "    for c in commands:\n",
    "        os.system(c)"
   ]
  },
  {
   "cell_type": "code",
   "execution_count": null,
   "id": "1c4e71f0",
   "metadata": {},
   "outputs": [],
   "source": []
  }
 ],
 "metadata": {
  "kernelspec": {
   "display_name": "Environment (conda_py311)",
   "language": "python",
   "name": "conda_py311"
  },
  "language_info": {
   "codemirror_mode": {
    "name": "ipython",
    "version": 3
   },
   "file_extension": ".py",
   "mimetype": "text/x-python",
   "name": "python",
   "nbconvert_exporter": "python",
   "pygments_lexer": "ipython3",
   "version": "3.11.3"
  }
 },
 "nbformat": 4,
 "nbformat_minor": 5
}
